<?xml version="1.0" encoding="utf-8"?>
<!-- Generator: Adobe Illustrator 24.1.2, SVG Export Plug-In . SVG Version: 6.00 Build 0)  -->
<svg version="1.1" id="Layer_1" xmlns="http://www.w3.org/2000/svg" xmlns:xlink="http://www.w3.org/1999/xlink" x="0px" y="0px"
	 viewBox="0 0 512 512" style="enable-background:new 0 0 512 512;" xml:space="preserve">
<style type="text/css">
	.st0{fill:#F68F32;}
	.st1{fill:#FEDD8C;}
</style>
<g>
	<path class="st0" d="M255.8,334.2c-42.9,0-77.9-35.1-77.9-78c0-42.9,35.2-77.9,78-77.9c42.8,0,77.9,35.2,77.9,78.1
		C333.9,299.2,298.7,334.2,255.8,334.2z"/>
	<path class="st1" d="M243,393.3c0-0.5,0-1.1,0-1.6c0-20.5,0.9-21.1,21.6-18.7c3.6,0.4,4.4,2,4.4,5.2c-0.1,9.7,1.4,19.6-0.4,29
		c-1.9,10.2-11.3,3.3-17.2,4.7c-3.2,0.8-8.7,2.2-8.4-4.8C243.1,402.5,243,397.9,243,393.3z"/>
	<path class="st1" d="M392.9,243.2c20.2,0,20.1,0,19.1,20.3c-0.2,4-1.2,5.8-5.5,5.7c-9.4-0.2-18.8-0.1-28.2-0.1
		c-0.5,0-1.2,0.2-1.6-0.1c-8.2-5.2-1.9-13-3.6-19.5c-0.8-3.1-0.6-6.6,4.5-6.4C382.6,243.4,387.8,243.2,392.9,243.2z"/>
	<path class="st1" d="M120.1,243.2c19.6,0,19.4,0,19,19.7c-0.1,5-1.6,6.6-6.5,6.4c-8.9-0.3-17.8-0.3-26.6,0c-4.6,0.1-5.9-1.5-6.1-6
		C99.2,243.2,99.1,243.2,120.1,243.2z"/>
	<path class="st1" d="M243,119.7c0-0.3,0-0.5,0-0.8c0-21.3,0-21.2,21.5-18.7c3.6,0.4,4.5,1.8,4.5,5.1c-0.1,9.7,1,19.5-0.3,29
		c-1.4,10.5-10.3,3.4-15.6,4.6c-3.1,0.7-10,3.7-10-4.6C242.9,129.4,243,124.6,243,119.7z"/>
	<path class="st1" d="M350.4,368.3c-1-0.7-2.4-1.5-3.5-2.6c-6.2-6.1-12.2-12.3-18.4-18.3c-2.9-2.8-3-4.9-0.3-8.1
		c13.6-15.7,13.5-15.8,28.2-1.1c13.3,13.3,13.3,13.3-0.4,26.4C354.5,366,353.2,367.8,350.4,368.3z"/>
	<path class="st1" d="M342.6,186.2c-1.7-0.2-16.2-14.5-16.6-16.3c-0.4-2.3,1.2-3.4,2.5-4.7c6.1-6.1,12.3-12.2,18.3-18.4
		c2.9-3,5-2.8,8.1-0.1c15.5,13.6,15.6,13.5,0.9,28.2c-3.1,3.1-6.1,6.1-9.2,9.2C345.5,185.1,344.5,186.4,342.6,186.2z"/>
	<path class="st1" d="M153.4,375.4c-1.7-0.2-16.2-14.5-16.6-16.3c-0.4-2.3,1.2-3.4,2.5-4.7c6.1-6.1,12.3-12.2,18.3-18.4
		c2.9-3,5-2.8,8.1-0.1c15.5,13.6,15.6,13.5,0.9,28.2c-3.1,3.1-6.1,6.1-9.2,9.2C156.4,374.3,155.3,375.6,153.4,375.4z"/>
	<path class="st1" d="M143.8,161.7c1.1-3.9,4.2-5.8,6.6-8.3c10.5-10.7,10.6-10.6,21.2,0c1.1,1.1,2.3,2.3,3.4,3.4
		c12.9,12.9,12.4,17.4-3.3,28.1c-2.1,1.5-3.8,1.8-5.7,0c-6.9-6.9-13.8-13.7-20.6-20.7C144.8,163.5,144.3,162.5,143.8,161.7z"/>
</g>
</svg>
