<?xml version="1.0" encoding="utf-8"?>
<!-- Generator: Adobe Illustrator 24.1.2, SVG Export Plug-In . SVG Version: 6.00 Build 0)  -->
<svg version="1.1" id="Layer_1" xmlns="http://www.w3.org/2000/svg" xmlns:xlink="http://www.w3.org/1999/xlink" x="0px" y="0px"
	 viewBox="0 0 512 512" style="enable-background:new 0 0 512 512;" xml:space="preserve">
<style type="text/css">
	.st0{fill:#F68F32;}
	.st1{fill:#FEDD8C;}
	.st2{fill:#01A4FE;}
</style>
<g>
	<path class="st0" d="M370.6,227.9c-27.8,0-50.4-22.7-50.4-50.5c0-27.8,22.8-50.4,50.5-50.4c27.7,0,50.4,22.8,50.4,50.6
		C421.1,205.2,398.3,227.9,370.6,227.9z"/>
	<path class="st1" d="M362.2,266.2c0-0.3,0-0.7,0-1c0-13.2,0.6-13.7,14-12.1c2.3,0.3,2.9,1.3,2.9,3.3c-0.1,6.3,0.9,12.7-0.3,18.8
		c-1.2,6.6-7.3,2.2-11.1,3c-2.1,0.5-5.6,1.4-5.5-3.1C362.3,272.1,362.2,269.2,362.2,266.2z"/>
	<path class="st1" d="M459.3,169c13.1,0,13,0,12.4,13.2c-0.1,2.6-0.8,3.8-3.6,3.7c-6.1-0.1-12.2,0-18.3,0c-0.3,0-0.8,0.1-1,0
		c-5.3-3.3-1.2-8.4-2.3-12.6c-0.5-2-0.4-4.3,2.9-4.2C452.7,169.1,456,169,459.3,169z"/>
	<path class="st1" d="M282.7,169c12.7,0,12.6,0,12.3,12.7c-0.1,3.2-1,4.3-4.2,4.1c-5.7-0.2-11.5-0.2-17.2,0c-2.9,0.1-3.8-1-3.9-3.9
		C269.1,169,269,169,282.7,169z"/>
	<path class="st1" d="M362.2,89c0-0.2,0-0.3,0-0.5c0-13.8,0-13.7,13.9-12.1c2.3,0.3,2.9,1.2,2.9,3.3c-0.1,6.3,0.6,12.6-0.2,18.8
		c-0.9,6.8-6.7,2.2-10.1,3c-2,0.5-6.5,2.4-6.5-3C362.2,95.3,362.2,92.1,362.2,89z"/>
	<path class="st1" d="M431.8,250c-0.7-0.5-1.6-1-2.3-1.7c-4-3.9-7.9-8-11.9-11.8c-1.9-1.8-2-3.2-0.2-5.3c8.8-10.2,8.8-10.2,18.2-0.7
		c8.6,8.6,8.6,8.6-0.2,17.1C434.4,248.5,433.6,249.7,431.8,250z"/>
	<path class="st1" d="M426.7,132.1c-1.1-0.1-10.5-9.4-10.7-10.6c-0.3-1.5,0.8-2.2,1.6-3.1c3.9-4,8-7.9,11.8-11.9
		c1.9-2,3.2-1.8,5.3,0c10,8.8,10.1,8.8,0.6,18.2c-2,2-4,4-5.9,5.9C428.6,131.4,427.9,132.2,426.7,132.1z"/>
	<path class="st1" d="M298,116.2c0.7-2.5,2.7-3.8,4.3-5.4c6.8-6.9,6.8-6.9,13.7,0c0.7,0.7,1.5,1.5,2.2,2.2c8.4,8.4,8,11.3-2.1,18.2
		c-1.4,0.9-2.5,1.2-3.7,0c-4.5-4.5-8.9-8.9-13.4-13.4C298.6,117.3,298.3,116.7,298,116.2z"/>
</g>
<path class="st2" d="M215.5,387c-36,0-72.1,0.2-108.1-0.1c-34.5-0.3-62.1-25.3-66.8-59.7c-4.3-31.6,16.4-62.8,48.1-72.5
	c8.7-2.7,17.7-3.9,26.7-2.3c5.8,1,6.8,0.4,6.4-5.8c-4.3-56.5,39.1-103.2,95.1-102.9c55,0.3,97.7,47.3,93.4,103
	c-0.4,4.8-0.9,6.7,5.5,5.8c38.4-5.1,73.3,23.8,75.8,62.1c2.5,38.7-27.4,71.8-66.2,72.3C288.7,387.3,252.1,387,215.5,387z"/>
</svg>
