<?xml version="1.0" encoding="utf-8"?>
<!-- Generator: Adobe Illustrator 24.1.2, SVG Export Plug-In . SVG Version: 6.00 Build 0)  -->
<svg version="1.1" id="Layer_1" xmlns="http://www.w3.org/2000/svg" xmlns:xlink="http://www.w3.org/1999/xlink" x="0px" y="0px"
	 viewBox="0 0 512 512" style="enable-background:new 0 0 512 512;" xml:space="preserve">
<style type="text/css">
	.st0{fill:#92D8EE;}
</style>
<path class="st0" d="M146.2,150.7c16.7-22.5,73.6-20.6,102.6,7.3c18.8,18.1,14.3,36.1,27.8,39.7c26.6,7.1,57.2-59.4,84.7-50.3
	c0.6,0.2,11.4,2.2,9.9,8.6c-4.4,18.5-62.4,70.6-99.3,60.2c-29.9-8.4-17.1-38.7-52.9-51.6c-33.9-12.2-67.6,18.2-76.8,6
	C138.5,165.6,142.2,156.1,146.2,150.7z"/>
<path class="st0" d="M146.3,220c16.7-22.4,73.3-20.6,102.2,7.3c18.8,18.1,14.2,36,27.7,39.6c26.5,7.1,57-59.2,84.4-50.1
	c0.6,0.2,11.4,2.2,9.9,8.6c-4.4,18.5-62.2,70.3-98.9,60c-29.8-8.4-17.1-38.6-52.8-51.4c-33.8-12.2-67.4,18.2-76.5,5.9
	C138.6,234.8,142.3,225.4,146.3,220z"/>
<path class="st0" d="M146.3,291.2c16.7-22.4,73.3-20.6,102.2,7.3c18.8,18.1,14.2,36,27.7,39.6c26.5,7.1,57-59.2,84.4-50.1
	c0.6,0.2,11.4,2.2,9.9,8.6c-4.4,18.5-62.2,70.3-98.9,60c-29.8-8.4-17.1-38.6-52.8-51.4c-33.8-12.2-67.4,18.2-76.5,5.9
	C138.6,306.1,142.3,296.6,146.3,291.2z"/>
</svg>
