<?xml version="1.0" encoding="utf-8"?>
<!-- Generator: Adobe Illustrator 24.1.2, SVG Export Plug-In . SVG Version: 6.00 Build 0)  -->
<svg version="1.1" id="Layer_1" xmlns="http://www.w3.org/2000/svg" xmlns:xlink="http://www.w3.org/1999/xlink" x="0px" y="0px"
	 viewBox="0 0 512 512" style="enable-background:new 0 0 512 512;" xml:space="preserve">
<style type="text/css">
	.st0{fill:#FEFEFE;}
	.st1{fill:#01A4FE;}
	.st2{fill:#0355A5;}
	.st3{fill:#F68F32;}
	.st4{fill:#92D8EE;}
	.st5{fill:#FEDD8C;}
</style>
<path class="st0" d="M257.9,386.9c16.2,0,32.4,0.2,48.6,0c17.2-0.2,30.4-14.9,29.3-32c-1.1-16.9-16.6-29.7-33.6-27.5
	c-2.8,0.4-2.6-0.5-2.4-2.6c1.9-24.6-17-45.4-41.3-45.6c-24.8-0.2-44,20.6-42.1,45.6c0.2,2.7-0.2,3-2.8,2.6c-4-0.7-7.9-0.2-11.8,1
	c-14.1,4.3-23.2,18.1-21.3,32.1c2.1,15.3,14.3,26.3,29.6,26.5C225.9,387,241.9,386.9,257.9,386.9z M247.3,159.4
	c-6.3,10.2-12.2,19.8-18,29.5c-1.1,1.9-2.5,2.8-4.6,3.3c-7.1,1.7-14.3,3.5-21.4,5.2c-8.7,2.1-8.6,2.1-6.6,10.7
	c0.6,2.7,1.6,2.9,4,2.3c5.6-1.5,11.3-2.8,17.4-4.2c-1.1,3.3-2.9,5.5-4.3,7.9c-3.9,6.5-3.8,6.3,2.3,10.4c3.1,2.1,4.6,1.9,6.3-1.5
	c1.8-3.6,4.3-7,6.8-11c1.2,4.6,2.1,8.2,3,11.8c0.8,2.9,0.8,7,2.6,8.2c2.2,1.4,5.8-1.1,8.8-1.5c2.3-0.3,2.3-1.4,1.8-3.3
	c-1.9-7-3.2-14.1-5.5-20.9c-2.1-6.1-1.2-10.9,2.5-16.2c5.5-7.9,10.3-16.4,15.6-25.1c6.3,10.3,12.4,20.1,18.4,29.9
	c0.4,0.6,0.7,1.3,1.1,1.9c0.9,1.3,0.1,2.4-0.2,3.6c-1.7,6.9-3.5,13.7-5.2,20.6c-0.7,2.9-3,6.4-1.6,8.4c1.4,1.9,5.5,1.7,8.3,2.7
	c2.4,0.9,2.9-0.1,3.4-2.2c1.3-5.7,2.9-11.4,4.6-17.9c1.8,2.9,3.2,5,4.5,7.2c4.9,8,4.8,7.9,12.7,2.8c1.8-1.2,2-2,0.8-3.8
	c-2.5-3.7-4.7-7.6-7.3-11.8c4.8,0.3,8.7,1.7,12.6,2.6c8.4,2,8.3,2,10.4-6.4c0.6-2.5,0.1-3.5-2.5-4.1c-8.9-2-17.7-4.3-26.5-6.3
	c-2.3-0.5-3.9-1.6-5.2-3.7c-5.3-8.9-10.8-17.6-16.1-26.5c-0.5-0.8-1.5-1.4-0.8-2.7c11.8,0,23.7,0,35.5,0c1.7,0,2.7,0.7,3.8,1.8
	c5.6,5.5,11.2,11,16.9,16.5c5.4,5.3,5.2,5.1,10.7,0c2.8-2.6,2.7-4-0.1-6.5c-4-3.5-7.5-7.6-11.4-11.7c2.8,0,5.3,0,7.8,0
	c9.3,0,9.3,0,9.1-9.3c0-2.1-0.6-2.7-2.7-2.7c-4.7,0.1-9.3,0-14.4,0c3-3.1,5.6-5.9,8.3-8.6c6.6-6.5,6.6-6.4,0-13.1
	c-1.5-1.5-2.3-1.5-3.8,0c-5.5,5.6-11.5,10.8-16.7,16.6c-3.7,4.1-7.6,5.4-13,5.2c-10-0.4-20.1-0.1-30.1-0.1c-0.1-1.5,0.7-2.2,1.2-3
	c5.4-8.8,10.9-17.6,16.2-26.5c1.1-1.9,2.5-2.8,4.6-3.3c7.1-1.7,14.3-3.4,21.4-5.2c8.9-2.2,8.8-2.2,6.5-11.1c-0.6-2.2-1.4-2.6-3.6-2
	c-5.7,1.6-11.5,2.8-17.7,4.3c1-3.2,2.7-5.3,4.1-7.6c4.1-6.8,4-6.6-2.5-11c-2.8-1.9-4.2-1.7-5.8,1.3c-2,3.8-4.4,7.3-7,11.5
	c-1.2-4.6-2.1-8.2-3-11.8c-2.4-9.2-2.4-9.2-11.5-6.7c-2.1,0.6-2.4,1.4-1.8,3.4c1.7,6.2,2.6,12.8,4.9,18.8c2.9,7.6,1.7,13.8-3.1,20.3
	c-5.3,7.2-9.5,15.1-14.4,23.2c-6.4-10.4-12.5-20.4-18.6-30.3c-0.3-0.5-0.6-1.1-1-1.6c-0.9-1.2-0.1-2.4,0.2-3.6
	c1.7-6.9,3.5-13.7,5.2-20.6c0.7-2.9,3-6.4,1.6-8.4c-1.4-1.9-5.5-1.7-8.2-2.7c-2.4-0.9-2.9,0-3.4,2.1c-1.3,5.8-2.9,11.4-4.6,18
	c-1.8-2.8-3.1-5-4.5-7.2c-4.9-7.9-4.8-7.9-12.7-2.8c-1.8,1.2-2,2-0.8,3.7c2.4,3.7,4.7,7.5,7.5,12.1c-4.8-1.1-8.6-2-12.5-2.9
	c-9-2.2-8.9-2.2-10.9,6.6c-0.5,2.1-0.3,3,2.2,3.6c9.1,2,18.1,4.4,27.2,6.5c2.1,0.5,3.5,1.4,4.6,3.3c5.4,9,10.9,17.9,16.4,26.8
	c0.5,0.8,1.5,1.4,0.9,2.7c-11.8,0-23.7,0-35.5,0c-1.7,0-2.8-0.7-3.9-1.8c-6-5.9-11.9-11.7-17.9-17.5c-4.3-4.2-4.3-4.2-8.5,0
	c-4.2,4.3-4.2,4.3,0.1,8.5c3.4,3.4,6.7,7,10.2,10.7c-2.8,0-5.3,0-7.7,0c-9.3,0-9.3,0-9.1,9.4c0,2.1,0.7,2.7,2.7,2.7
	c4.7-0.1,9.4,0,14.2,0c-3,3.2-5.6,6.1-8.4,8.9c-6.3,6.2-6.2,6.1,0,12.6c1.8,1.8,2.7,1.7,4.4,0c6.6-6.6,13.4-13.1,20-19.6
	c1.1-1.1,2.1-1.8,3.8-1.8C222.8,159.4,234.7,159.4,247.3,159.4z M150.4,219.3c-19.8,0-35.9,16.1-36,35.9c0,19.7,16.1,35.9,35.9,36
	c19.8,0,35.9-16.1,36-35.9C186.2,235.4,170.1,219.3,150.4,219.3z M362.1,255.2c16.6,0,33.1,0,49.7,0c2.5,0,5-0.1,7.4-0.7
	c9.1-2.3,15.2-8.1,17.5-17.1c2.6-9.9-0.4-18.4-8.3-25c-7.4-6.1-16.3-5.2-25-5.1c-1.3,0-1.6,0.8-1.7,1.9c-1.3,9.3-0.7,10,8.6,10
	c0.9,0,1.7,0,2.6,0c3-0.1,5.7,0.6,8,2.5c4.3,3.4,5.7,8.3,4.1,13.3c-1.7,5.1-6,8.1-11.7,8.1c-33.1,0-66.3,0-99.4,0c-8,0-7.8,0-8,8
	c-0.1,3,0.7,4,3.9,4C327.2,255.1,344.7,255.2,362.1,255.2z M359,267.1c-9,0-17.9,0-26.9,0c-8.3,0-8.1,0-8.3,8.1
	c-0.1,3.2,0.9,3.9,4,3.9c20.6-0.1,41.1-0.1,61.7-0.1c7,0,12.2,5.2,12.3,11.9c0,6.7-5.2,11.9-12.1,12c-4.7,0.1-9.5,0.1-14.2,0
	c-2.6-0.1-3.7,0.5-3.7,3.4c0.1,8.6-0.1,8.6,8.6,8.6c5.7-0.1,11.5,0.7,17-1.2c10.8-3.8,18-15.2,16.2-25.7
	c-2.1-12.6-11.7-20.9-24.3-21C379.2,267.1,369.1,267.1,359,267.1z M226.1,408.9c-0.5-0.6-0.9-1.1-1.3-1.5c-1.6-1.6-3.3-3.1-4.7-4.8
	c-1.6-1.9-2.7-1.7-4.4,0c-7,7.2-14.2,14.3-21.3,21.4c-6.8,6.8-6.8,6.8,0.4,13.3c1.3,1.2,2.1,1.2,3.3,0c8.8-8.9,17.7-17.8,26.6-26.7
	C225.2,410.2,225.6,409.6,226.1,408.9z M237.8,439.1c1.2-1.1,2-1.6,2.7-2.3c7.2-7.2,14.4-14.4,21.6-21.6c6.3-6.3,6.2-6.2-0.2-12.5
	c-1.7-1.7-2.7-1.7-4.4,0c-8,8.2-16.1,16.2-24.2,24.3c-3.5,3.5-3.5,3.5-0.1,7C234.8,435.6,236.2,437.3,237.8,439.1z M309.9,409.1
	c-0.6-0.7-1-1.2-1.5-1.7c-1.6-1.6-3.3-3.1-4.7-4.8c-1.5-1.8-2.5-1.7-4.1,0c-7.1,7.3-14.4,14.5-21.6,21.7c-6.6,6.6-6.5,6.5,0.4,13.1
	c1.4,1.3,2.2,1.4,3.6,0c8.7-8.8,17.6-17.6,26.4-26.4C308.9,410.3,309.3,409.8,309.9,409.1z M156.3,192c0-2.1-0.1-4.2,0-6.3
	c0.1-3.2-2.4-2.6-3.9-2.2c-2.7,0.6-7-2.5-7.9,2.2c-0.8,4.3-0.2,8.9-0.2,13.4c0,1.4,0.4,2.2,2,2.4c9.5,1.1,9.9,0.8,9.9-8.6
	C156.3,192.5,156.3,192.2,156.3,192z M284.6,255.2c9.7,0,9.7,0,9.4-9.2c-0.1-2-0.5-2.9-2.7-2.8c-4.2,0.1-8.4,0.1-12.6,0
	c-2.2-0.1-2.6,0.9-2.7,2.9C275.7,255.2,275.6,255.2,284.6,255.2z M87.2,261.2c2.4,0,4.7-0.1,7.1,0c2.3,0.1,2.5-1.6,2.1-3
	c-0.8-3,2.1-6.6-1.6-9c-0.2-0.1-0.5,0-0.7,0c-4.3,0-8.7,0.1-13,0c-2,0-2.5,0.8-2.6,2.6C78,261.2,77.9,261.2,87.2,261.2z
	 M212.9,261.2c9.7,0,9.6,0,9.3-9.2c-0.1-2.1-0.7-2.8-2.8-2.8c-4.1,0.1-8.2,0.1-12.3,0c-2.3-0.1-3,0.7-3,3
	C203.9,261.2,203.9,261.2,212.9,261.2z M156.3,318c0-2.2,0-4.5,0-6.7c0-3.8-3.2-2.5-4.6-2.1c-2.4,0.6-6.6-2.7-7.2,2.1
	c-0.6,4.4-0.1,8.9-0.1,13.4c0,1.5,0.4,2.1,2.1,2.3c9.9,1.1,9.9,1.2,9.9-8.6C156.3,318.3,156.3,318.2,156.3,318z M106.8,203.5
	c-1.3,0.2-1.9,1.1-2.6,1.8c-6.3,6-6.3,6-0.2,12.1c6.8,6.7,6.7,6.7,13-0.5c1.3-1.5,1.2-2.4-0.1-3.7c-2.9-2.8-5.6-5.6-8.5-8.4
	C107.9,204.2,107.2,203.9,106.8,203.5z M110.4,287.4c-0.9-0.1-1.4,0.5-1.9,1c-1.4,1.4-2.8,2.8-4.2,4.2c-6.7,6.7-6.7,6.7,0.4,13
	c1.4,1.3,2.4,1.4,3.7,0c2.8-2.9,5.6-5.6,8.4-8.5c0.6-0.6,1.4-1.1,1.2-2.2C117.9,294.1,111.2,287.5,110.4,287.4z M201.9,298.7
	c-0.2-0.4-0.4-0.8-0.8-1.2c-3.2-3.2-6.3-6.3-9.5-9.5c-0.9-0.9-1.6-0.7-2.6,0c-7.2,4.9-7.5,7-1.5,13c0.5,0.5,1.1,1.1,1.6,1.6
	c4.9,4.9,4.9,4.9,9.8,0C200,301.4,201.5,300.5,201.9,298.7z"/>
<path class="st1" d="M257.9,386.9c-16,0-31.9,0.1-47.9,0c-15.3-0.1-27.5-11.2-29.6-26.5c-1.9-14,7.2-27.8,21.3-32.1
	c3.9-1.2,7.9-1.7,11.8-1c2.6,0.5,3,0.2,2.8-2.6c-1.9-25,17.3-45.7,42.1-45.6c24.3,0.1,43.2,20.9,41.3,45.6c-0.2,2.1-0.4,3,2.4,2.6
	c17-2.2,32.5,10.6,33.6,27.5c1.1,17.2-12.1,31.8-29.3,32C290.3,387,274.1,386.9,257.9,386.9z"/>
<path class="st2" d="M247.3,159.4c-12.7,0-24.5,0-36.4,0c-1.7,0-2.7,0.7-3.8,1.8c-6.7,6.6-13.4,13-20,19.6c-1.7,1.7-2.6,1.8-4.4,0
	c-6.3-6.5-6.3-6.4,0-12.6c2.8-2.8,5.4-5.7,8.4-8.9c-4.9,0-9.6-0.1-14.2,0c-2.1,0.1-2.7-0.5-2.7-2.7c-0.2-9.4-0.2-9.4,9.1-9.4
	c2.5,0,5,0,7.7,0c-3.5-3.7-6.8-7.3-10.2-10.7c-4.3-4.3-4.3-4.2-0.1-8.5c4.1-4.3,4.1-4.3,8.5,0c6,5.8,12,11.7,17.9,17.5
	c1.1,1.1,2.1,1.8,3.9,1.8c11.8-0.1,23.7,0,35.5,0c0.6-1.3-0.4-1.9-0.9-2.7c-5.4-8.9-11-17.8-16.4-26.8c-1.1-1.9-2.5-2.8-4.6-3.3
	c-9.1-2.2-18.1-4.5-27.2-6.5c-2.4-0.5-2.6-1.5-2.2-3.6c1.9-8.8,1.9-8.8,10.9-6.6c3.8,0.9,7.7,1.8,12.5,2.9c-2.8-4.6-5-8.4-7.5-12.1
	c-1.1-1.7-1-2.6,0.8-3.7c7.9-5.1,7.8-5.1,12.7,2.8c1.3,2.2,2.7,4.3,4.5,7.2c1.7-6.5,3.3-12.2,4.6-18c0.5-2.1,1-3,3.4-2.1
	c2.8,1,6.9,0.8,8.2,2.7c1.4,2-0.9,5.5-1.6,8.4c-1.7,6.9-3.5,13.7-5.2,20.6c-0.3,1.1-1.1,2.3-0.2,3.6c0.4,0.5,0.6,1.1,1,1.6
	c6.1,9.9,12.2,19.9,18.6,30.3c5-8.1,9.2-16,14.4-23.2c4.8-6.5,6-12.7,3.1-20.3c-2.3-6-3.2-12.5-4.9-18.8c-0.6-2-0.3-2.8,1.8-3.4
	c9.1-2.4,9.1-2.5,11.5,6.7c0.9,3.6,1.9,7.2,3,11.8c2.6-4.2,5-7.7,7-11.5c1.6-3,3-3.2,5.8-1.3c6.5,4.3,6.6,4.1,2.5,11
	c-1.4,2.3-3.1,4.4-4.1,7.6c6.2-1.5,12-2.7,17.7-4.3c2.2-0.6,3-0.3,3.6,2c2.3,8.8,2.3,8.9-6.5,11.1c-7.1,1.8-14.3,3.5-21.4,5.2
	c-2,0.5-3.5,1.4-4.6,3.3c-5.3,8.9-10.8,17.6-16.2,26.5c-0.5,0.8-1.3,1.5-1.2,3c10,0,20.1-0.3,30.1,0.1c5.4,0.2,9.3-1.2,13-5.2
	c5.2-5.8,11.2-11,16.7-16.6c1.5-1.5,2.3-1.5,3.8,0c6.6,6.6,6.7,6.5,0,13.1c-2.7,2.7-5.3,5.5-8.3,8.6c5,0,9.7,0.1,14.4,0
	c2.1-0.1,2.7,0.5,2.7,2.7c0.2,9.3,0.2,9.3-9.1,9.3c-2.5,0-5,0-7.8,0c3.9,4.1,7.4,8.2,11.4,11.7c2.8,2.5,2.9,3.9,0.1,6.5
	c-5.4,5.1-5.3,5.3-10.7,0c-5.6-5.5-11.3-11-16.9-16.5c-1.1-1.1-2.1-1.8-3.8-1.8c-11.8,0.1-23.7,0-35.5,0c-0.7,1.3,0.3,1.9,0.8,2.7
	c5.4,8.8,10.9,17.6,16.1,26.5c1.3,2.1,2.9,3.2,5.2,3.7c8.8,2.1,17.6,4.3,26.5,6.3c2.6,0.6,3.1,1.6,2.5,4.1c-2.1,8.4-2,8.3-10.4,6.4
	c-4-0.9-7.9-2.3-12.6-2.6c2.6,4.2,4.8,8.1,7.3,11.8c1.2,1.7,0.9,2.6-0.8,3.8c-7.9,5.1-7.8,5.2-12.7-2.8c-1.3-2.2-2.7-4.4-4.5-7.2
	c-1.7,6.5-3.3,12.2-4.6,17.9c-0.5,2.1-1,3.1-3.4,2.2c-2.8-1-6.9-0.8-8.3-2.7c-1.4-2,0.9-5.5,1.6-8.4c1.7-6.9,3.5-13.7,5.2-20.6
	c0.3-1.1,1.1-2.3,0.2-3.6c-0.4-0.6-0.7-1.3-1.1-1.9c-6-9.8-12.1-19.6-18.4-29.9c-5.4,8.7-10.1,17.2-15.6,25.1
	c-3.7,5.3-4.6,10.1-2.5,16.2c2.3,6.8,3.6,14,5.5,20.9c0.5,1.9,0.5,3-1.8,3.3c-3.1,0.4-6.6,3-8.8,1.5c-1.9-1.2-1.9-5.4-2.6-8.2
	c-1-3.6-1.9-7.2-3-11.8c-2.5,4.1-5,7.4-6.8,11c-1.7,3.4-3.2,3.6-6.3,1.5c-6.2-4.2-6.3-4-2.3-10.4c1.5-2.4,3.3-4.6,4.3-7.9
	c-6.1,1.4-11.8,2.7-17.4,4.2c-2.4,0.7-3.4,0.4-4-2.3c-2-8.6-2.1-8.6,6.6-10.7c7.1-1.7,14.3-3.5,21.4-5.2c2.1-0.5,3.5-1.4,4.6-3.3
	C235.1,179.2,241,169.6,247.3,159.4z"/>
<path class="st3" d="M150.4,219.3c19.8,0,35.9,16.2,35.9,36c0,19.8-16.2,35.9-36,35.9c-19.7,0-35.9-16.2-35.9-36
	C114.4,235.4,130.6,219.2,150.4,219.3z"/>
<path class="st4" d="M362.1,255.2c-17.4,0-34.9-0.1-52.3,0.1c-3.2,0-4-1-3.9-4c0.2-8,0-8,8-8c33.1,0,66.3,0,99.4,0
	c5.7,0,10-3.1,11.7-8.1c1.7-5,0.2-9.9-4.1-13.3c-2.3-1.9-5.1-2.6-8-2.5c-0.9,0-1.7,0-2.6,0c-9.3,0-9.9-0.8-8.6-10
	c0.2-1.1,0.4-1.9,1.7-1.9c8.7-0.1,17.6-1,25,5.1c7.9,6.6,10.9,15.1,8.3,25c-2.4,9-8.4,14.7-17.5,17.1c-2.4,0.6-4.9,0.7-7.4,0.7
	C395.2,255.2,378.7,255.2,362.1,255.2z"/>
<path class="st4" d="M359,267.1c10.1,0,20.2,0,30.3,0c12.5,0,22.1,8.4,24.3,21c1.8,10.4-5.4,21.8-16.2,25.7c-5.5,2-11.3,1.2-17,1.2
	c-8.7,0.1-8.5,0-8.6-8.6c0-3,1-3.5,3.7-3.4c4.7,0.2,9.5,0.1,14.2,0c6.9-0.1,12.1-5.3,12.1-12c0-6.7-5.3-11.9-12.3-11.9
	c-20.6,0-41.1-0.1-61.7,0.1c-3.1,0-4-0.8-4-3.9c0.2-8.1,0-8.1,8.3-8.1C341.1,267.1,350.1,267.1,359,267.1z"/>
<g>
	<path class="st1" d="M226.1,408.9c-0.5,0.6-0.9,1.2-1.4,1.7c-8.9,8.9-17.8,17.8-26.6,26.7c-1.2,1.2-2,1.2-3.3,0
		c-7.2-6.5-7.3-6.5-0.4-13.3c7.1-7.1,14.3-14.2,21.3-21.4c1.7-1.8,2.8-1.9,4.4,0c1.4,1.7,3.1,3.2,4.7,4.8
		C225.2,407.9,225.6,408.4,226.1,408.9z"/>
	<path class="st1" d="M237.8,439.1c-1.6-1.8-3-3.6-4.5-5.2c-3.4-3.5-3.4-3.5,0.1-7c8.1-8.1,16.2-16.1,24.2-24.3
		c1.7-1.8,2.7-1.8,4.4,0c6.4,6.3,6.4,6.3,0.2,12.5c-7.2,7.2-14.4,14.4-21.6,21.6C239.8,437.5,239,438.1,237.8,439.1z"/>
	<path class="st1" d="M309.9,409.1c-0.6,0.7-1.1,1.2-1.6,1.8c-8.8,8.8-17.6,17.6-26.4,26.4c-1.4,1.4-2.2,1.3-3.6,0
		c-6.9-6.5-7-6.5-0.4-13.1c7.2-7.2,14.5-14.4,21.6-21.7c1.6-1.7,2.6-1.7,4.1,0c1.4,1.7,3.1,3.2,4.7,4.8
		C308.9,407.9,309.4,408.4,309.9,409.1z"/>
</g>
<path class="st5" d="M156.3,192c0,0.2,0,0.5,0,0.7c0,9.4-0.4,9.7-9.9,8.6c-1.7-0.2-2-0.9-2-2.4c0-4.5-0.6-9,0.2-13.4
	c0.9-4.7,5.2-1.5,7.9-2.2c1.5-0.3,4-1,3.9,2.2C156.2,187.8,156.3,189.9,156.3,192z"/>
<path class="st4" d="M284.6,255.2c-9,0-8.9,0-8.7-9.1c0.1-2,0.5-2.9,2.7-2.9c4.2,0.1,8.4,0.1,12.6,0c2.2-0.1,2.7,0.8,2.7,2.8
	C294.3,255.2,294.4,255.2,284.6,255.2z"/>
<path class="st5" d="M87.2,261.2c-9.3,0-9.2,0-8.8-9.4c0.1-1.9,0.6-2.7,2.6-2.6c4.3,0.1,8.7,0,13,0c0.2,0,0.6-0.1,0.7,0
	c3.8,2.4,0.9,6,1.6,9c0.4,1.4,0.3,3.1-2.1,3C91.9,261.1,89.6,261.2,87.2,261.2z"/>
<path class="st5" d="M212.9,261.2c-9,0-8.9,0-8.7-9.1c0-2.3,0.7-3,3-3c4.1,0.1,8.2,0.1,12.3,0c2.1-0.1,2.7,0.7,2.8,2.8
	C222.5,261.2,222.6,261.2,212.9,261.2z"/>
<path class="st5" d="M156.3,318c0,0.1,0,0.2,0,0.4c0,9.8,0,9.8-9.9,8.6c-1.6-0.2-2.1-0.9-2.1-2.3c0-4.5-0.4-9,0.1-13.4
	c0.6-4.9,4.8-1.6,7.2-2.1c1.4-0.3,4.6-1.7,4.6,2.1C156.3,313.6,156.3,315.8,156.3,318z"/>
<path class="st5" d="M106.8,203.5c0.5,0.3,1.1,0.7,1.6,1.2c2.8,2.8,5.6,5.7,8.5,8.4c1.4,1.3,1.4,2.3,0.1,3.7
	c-6.3,7.2-6.2,7.3-13,0.5c-6.1-6.1-6.1-6.1,0.2-12.1C104.9,204.6,105.5,203.7,106.8,203.5z"/>
<path class="st5" d="M110.4,287.4c0.8,0.1,7.5,6.7,7.6,7.5c0.2,1.1-0.6,1.6-1.2,2.2c-2.8,2.8-5.7,5.6-8.4,8.5
	c-1.3,1.4-2.3,1.3-3.7,0c-7.1-6.3-7.2-6.2-0.4-13c1.4-1.4,2.8-2.8,4.2-4.2C109,287.9,109.5,287.3,110.4,287.4z"/>
<path class="st5" d="M201.9,298.7c-0.5,1.8-1.9,2.7-3.1,3.8c-4.9,4.9-4.9,4.9-9.8,0c-0.5-0.5-1.1-1.1-1.6-1.6c-5.9-5.9-5.7-8,1.5-13
	c1-0.7,1.8-0.8,2.6,0c3.2,3.2,6.3,6.3,9.5,9.5C201.5,297.9,201.7,298.4,201.9,298.7z"/>
</svg>
