<?xml version="1.0" encoding="utf-8"?>
<!-- Generator: Adobe Illustrator 24.1.2, SVG Export Plug-In . SVG Version: 6.00 Build 0)  -->
<svg version="1.1" id="Layer_1" xmlns="http://www.w3.org/2000/svg" xmlns:xlink="http://www.w3.org/1999/xlink" x="0px" y="0px"
	 viewBox="0 0 512 512" style="enable-background:new 0 0 512 512;" xml:space="preserve">
<style type="text/css">
	.st0{fill:#99DBFF;}
	.st1{fill:#01A4FE;}
</style>
<path class="st0" d="M358.3,289.2c-24.7,0-49.4,0.2-74.2,0c-23.6-0.2-42.6-17.3-45.8-41c-3-21.7,11.2-43.1,33-49.7
	c6-1.8,12.2-2.7,18.3-1.6c4,0.7,4.7,0.3,4.4-4c-3-38.7,26.8-70.8,65.2-70.5c37.7,0.2,67,32.4,64,70.6c-0.3,3.3-0.6,4.6,3.8,4
	c26.3-3.5,50.3,16.4,52,42.6c1.7,26.6-18.8,49.3-45.4,49.6C408.6,289.4,383.5,289.2,358.3,289.2z"/>
<path class="st1" d="M215.5,387c-36,0-72.1,0.2-108.1-0.1c-34.5-0.3-62.1-25.3-66.8-59.7c-4.3-31.6,16.4-62.8,48.1-72.5
	c8.7-2.7,17.7-3.9,26.7-2.3c5.8,1,6.8,0.4,6.4-5.8c-4.3-56.5,39.1-103.2,95.1-102.9c55,0.3,97.7,47.3,93.4,103
	c-0.4,4.8-0.9,6.7,5.5,5.8c38.4-5.1,73.3,23.8,75.8,62.1c2.5,38.7-27.4,71.8-66.2,72.3C288.7,387.3,252.1,387,215.5,387z"/>
<g>
	<path class="st1" d="M315.7,413.4c0.5,0.6,0.9,1.2,1.4,1.7c8.9,8.9,17.8,17.8,26.6,26.7c1.2,1.2,2,1.2,3.3,0
		c7.2-6.5,7.3-6.5,0.4-13.3c-7.1-7.1-14.3-14.2-21.3-21.4c-1.7-1.8-2.8-1.9-4.4,0c-1.4,1.7-3.1,3.2-4.7,4.8
		C316.6,412.3,316.2,412.8,315.7,413.4z"/>
	<path class="st1" d="M304,443.6c1.6-1.8,3-3.6,4.5-5.2c3.4-3.5,3.4-3.5-0.1-7c-8.1-8.1-16.2-16.1-24.2-24.3c-1.7-1.8-2.7-1.8-4.4,0
		c-6.4,6.3-6.4,6.3-0.2,12.5c7.2,7.2,14.4,14.4,21.6,21.6C302,441.9,302.8,442.5,304,443.6z"/>
	<path class="st1" d="M231.9,413.5c0.6,0.7,1.1,1.2,1.6,1.8c8.8,8.8,17.6,17.6,26.4,26.4c1.4,1.4,2.2,1.3,3.6,0
		c6.9-6.5,7-6.5,0.4-13.1c-7.2-7.2-14.5-14.4-21.6-21.7c-1.6-1.7-2.6-1.7-4.1,0c-1.4,1.7-3.1,3.2-4.7,4.8
		C232.9,412.3,232.4,412.9,231.9,413.5z"/>
</g>
<g>
	<path class="st1" d="M176.9,413.4c0.5,0.6,0.9,1.2,1.4,1.7c8.9,8.9,17.8,17.8,26.6,26.7c1.2,1.2,2,1.2,3.3,0
		c7.2-6.5,7.3-6.5,0.4-13.3c-7.1-7.1-14.3-14.2-21.3-21.4c-1.7-1.8-2.8-1.9-4.4,0c-1.4,1.7-3.1,3.2-4.7,4.8
		C177.8,412.3,177.4,412.8,176.9,413.4z"/>
	<path class="st1" d="M165.2,443.6c1.6-1.8,3-3.6,4.5-5.2c3.4-3.5,3.4-3.5-0.1-7c-8.1-8.1-16.2-16.1-24.2-24.3
		c-1.7-1.8-2.7-1.8-4.4,0c-6.4,6.3-6.4,6.3-0.2,12.5c7.2,7.2,14.4,14.4,21.6,21.6C163.2,441.9,164,442.5,165.2,443.6z"/>
	<path class="st1" d="M93.1,413.5c0.6,0.7,1.1,1.2,1.6,1.8c8.8,8.8,17.6,17.6,26.4,26.4c1.4,1.4,2.2,1.3,3.6,0
		c6.9-6.5,7-6.5,0.4-13.1c-7.2-7.2-14.5-14.4-21.6-21.7c-1.6-1.7-2.6-1.7-4.1,0c-1.4,1.7-3.1,3.2-4.7,4.8
		C94.1,412.3,93.6,412.9,93.1,413.5z"/>
</g>
</svg>
